# AST/ASF file generated using VICON BodyLanguage
# -----------------------------------------------
:version 1.10
:name VICON
:units
  mass 1.0
  length 0.45
  angle deg
:documentation
   .ast/.asf automatically generated from VICON data using
   VICON BodyBuilder and BodyLanguage model FoxedUp or BRILLIANT.MOD
:root
   order TX TY TZ RX RY RZ
   axis XYZ
   position 0 0 0  
   orientation 0 0 0 
:bonedata
  begin
     id 1 
     name lhipjoint
     direction 0.54267 -0.795011 0.271047 
     length 2.39899 
     axis 0 0 0  XYZ
  end
  begin
     id 2 
     name lfemur
     direction 0.34202 -0.939693 0  
     length 7.49701  
     axis 0 0 20  XYZ
    dof rx ry rz
    limits (-160.0 20.0)
           (-70.0 70.0)
           (-60.0 70.0)
  end
  begin
     id 3 
     name ltibia
     direction 0.34202 -0.939693 0   
     length 8.1668   
     axis 0 0 20   XYZ
    dof rx
    limits (-10.0 170.0)
  end
  begin
     id 4 
     name lfoot
     direction 0.0736283 -0.202292 0.976554   
     length 2.13544   
     axis -90 7.62852e-016 20   XYZ
    dof rx rz
    limits (-45.0 90.0)
           (-70.0 20.0)
  end
  begin
     id 5 
     name ltoes
     direction 1.53557e-011 -4.22024e-011 1   
     length 1.07411   
     axis -90 7.62852e-016 20   XYZ
    dof rx
    limits (-90.0 20.0)
  end
  begin
     id 6 
     name rhipjoint
     direction -0.538061 -0.797813 0.272002   
     length 2.39057  
     axis 0 0 0  XYZ 
  end
  begin
     id 7 
     name rfemur
     direction -0.34202 -0.939693 0   
     length 7.50152   
     axis 0 0 -20   XYZ
    dof rx ry rz
    limits (-160.0 20.0)
           (-70.0 70.0)
           (-70.0 60.0)
  end
  begin
     id 8 
     name rtibia
     direction -0.34202 -0.939693 0   
     length 8.05793   
     axis 0 0 -20   XYZ
    dof rx
    limits (-10.0 170.0)
 end
 begin
     id 9 
     name rfoot
     direction -0.0765195 -0.210236 0.974652   
     length 2.28698  
     axis -90 -7.62852e-016 -20   XYZ
    dof rx rz
    limits (-45.0 90.0)
           (-20.0 70.0)
  end
  begin
     id 10 
     name rtoes
     direction -1.53542e-011 -4.21847e-011 1   
     length 1.14762   
     axis -90 -7.62852e-016 -20   XYZ
    dof rx
    limits (-90.0 20.0)
  end
  begin
     id 11 
     name lowerback
     direction -0.0217239 0.996592 -0.0795765   
     length 2.08176   
     axis 0 0 0   XYZ
    dof rx ry rz
    limits (-20.0 45.0)
           (-30.0 30.0)
           (-30.0 30.0)
  end
  begin
     id 12 
     name upperback
     direction -0.00563773 0.999651 -0.0258155   
     length 2.08898   
     axis 0 0 0   XYZ
    dof rx ry rz
    limits (-20.0 45.0)
           (-30.0 30.0)
           (-30.0 30.0)
  end
  begin
     id 13 
     name thorax
     direction 0.0032706 0.999923 0.0119599   
     length 2.0968   
     axis 0 0 0   XYZ
    dof rx ry rz
    limits (-20.0 45.0)
           (-30.0 30.0)
           (-30.0 30.0)
  end
  begin
     id 14 
     name lowerneck
     direction -0.0285886 0.99568 0.0883427   
     length 1.81272   
     axis 0 0 0   XYZ
    dof rx ry rz
    limits (-20.0 45.0)
           (-30.0 30.0)
           (-30.0 30.0)
  end
  begin
     id 15 
     name upperneck
     direction 0.0807535 0.97985 -0.18268   
     length 1.82518   
     axis 0 0 0   XYZ
    dof rx ry rz
    limits (-20.0 45.0)
           (-30.0 30.0)
           (-30.0 30.0)
  end
  begin
     id 16
     name head
     direction 0.0236605 0.997053 -0.0729767  
     length 1.84443  
     axis 0 0 0   XYZ
    dof rx ry rz
    limits (-20.0 45.0)
           (-30.0 30.0)
           (-30.0 30.0)
  end
  begin
     id 17 
     name lclavicle
     direction 0.918986 0.39378 -0.0200683  
     length 3.27822  
     axis 0 0 0   XYZ
    dof ry rz
    limits (-20.0 10.0)
           (0.0 20.0)
  end
  begin
     id 18 
     name lhumerus
     direction 1 -4.4897e-011 2.09544e-027   
     length 5.5568   
     axis 180 -30 -90   XYZ
    dof rx ry rz
    limits (-60.0 90.0)
           (-90.0 90.0)
           (-90.0 90.0)
  end
  begin
     id 19
     name lradius
     direction 1 -4.48957e-011 -1.27696e-026   
     length 3.63979   
     axis 180 -30 -90   XYZ
    dof rx
    limits (-10.0 170.0)
  end
  begin
     id 20
     name lwrist
     direction 1 -4.49001e-011 -1.49001e-026   
     length 1.8199   
     axis 9.0955e-015 90 90   XYZ
    dof ry
    limits (-180.0 0.0)
 end
  begin
     id 21 
     name lhand
     direction 1 -4.48709e-011 -2.9758e-026   
     length 0.569419   
     axis 1.90115e-014 90 90   XYZ
    dof rx rz
    limits (-90.0 90.0)
           (-45.0 45.0)
  end
  begin
     id 22 
     name lfingers
     direction 1 -4.49175e-011 -5.96505e-026   
     length 0.45908   
     axis 3.80223e-014 90 90   XYZ
    dof rx
    limits (0.0 90.0)
  end
  begin
     id 23
     name lthumb
     direction 0.707107 -6.34864e-011 0.707107   
     length 0.65915   
     axis -90 45 -3.84942e-014   XYZ
    dof rx rz
    limits (-45.0 45.0)
           (-45.0 45.0)
  end
  begin
     id 24 
     name rclavicle
     direction -0.911913 0.396426 -0.106115   
     length 3.46301  
     axis 0 0 0   XYZ 
    dof ry rz
    limits (-10.0 20.0)
           (-20.0 0.0)
  end
  begin
     id 25 
     name rhumerus
     direction -1 -4.48965e-011 7.78516e-028  
     length 5.34339   
     axis 180 30 90   XYZ
    dof rx ry rz
    limits (-90.0 60.0)
           (-90.0 90.0)
           (-90.0 90.0)
  end
  begin
     id 26 
     name rradius
     direction -1 -4.48948e-011 -5.79823e-027   
     length 3.65101   
     axis 180 30 90   XYZ
    dof rx
    limits (-10.0 170.0)
  end
  begin
     id 27 
     name rwrist
     direction -1 -4.48995e-011 -1.48996e-026   
     length 1.8255   
     axis 9.0955e-015 -90 -90   XYZ
    dof ry
    limits (-180.0 0.0)
  end
  begin
     id 28
     name rhand
     direction -1 -4.48957e-011 -2.97937e-026   
     length 0.694249   
     axis 1.90115e-014 -90 -90   XYZ
    dof rx rz
    limits (-90.0 90.0)
           (-45.0 45.0)
  end
  begin
     id 29
     name rfingers
     direction -1 -4.4898e-011 -5.95943e-026   
     length 0.559721   
     axis 3.80223e-014 -90 -90   XYZ
    dof rx
    limits (0.0 90.0)
  end
  begin
     id 30
     name rthumb
     direction -0.707107 -6.34969e-011 0.707107   
     length 0.803651   
     axis -90 -45 3.84942e-014   XYZ
    dof rx rz
    limits (-45.0 45.0)
           (-45.0 45.0)
  end
:hierarchy
  begin
    root lhipjoint rhipjoint lowerback
    lhipjoint lfemur
    lfemur ltibia
    ltibia lfoot
    lfoot ltoes
    rhipjoint rfemur
    rfemur rtibia
    rtibia rfoot
    rfoot rtoes
    lowerback upperback
    upperback thorax
    thorax lowerneck lclavicle rclavicle
    lowerneck upperneck
    upperneck head
    lclavicle lhumerus
    lhumerus lradius
    lradius lwrist
    lwrist lhand lthumb
    lhand lfingers
    rclavicle rhumerus
    rhumerus rradius
    rradius rwrist
    rwrist rhand rthumb
    rhand rfingers
  end

#!OML:ASF H:\Terrain\Walking\May29\JustinRory\rory.ASF
:FULLY-SPECIFIED
:DEGREES
60
root 12.2256 18.0434 9.21104 -172.236 8.52936 180.63
lowerback 3.87073 1.59164 -0.574598
upperback 1.00273 2.13264 0.277515
thorax -1.17109 1.07951 0.502977
lowerneck -9.77159 1.61957 0.286121
upperneck 6.5565 2.49887 -3.61512
head 3.96264 1.09018 -1.09723
rclavicle 5.8393e-015 -7.95139e-016
rhumerus -22.1444 0.0564551 -68.8959
rradius 143.041
rwrist -33.554
rhand -15.3019 36.0426
rfingers 7.12502
rthumb 10.8735 6.34407
lclavicle 5.8393e-015 -7.95139e-016
lhumerus -26.8324 18.4169 46.2845
lradius 148.877
lwrist 52.3605
lhand 2.37374 23.3669
lfingers 7.12502
lthumb 27.862 51.3207
rfemur 4.54538 9.27011 21.1176
rtibia 17.8616
rfoot -21.9157 -18.6791
rtoes 11.1945
lfemur -35.7139 -7.12935 -8.54433
ltibia 26.1903
lfoot -0.489286 4.01355
ltoes -20.804
61
root 12.1988 18.0245 9.11785 -172.034 8.2694 180.763
lowerback 3.77246 1.61691 -0.558359
upperback 0.925345 2.1654 0.330563
thorax -1.19741 1.09497 0.548201
lowerneck -9.71415 1.50553 0.107193
upperneck 6.27218 2.34943 -3.50798
head 3.84139 1.02051 -1.03789
rclavicle 1.27098e-014 1.54058e-015
rhumerus -19.4717 -2.6299 -67.821
rradius 144.259
rwrist -35.5346
rhand -16.5764 36.7109
rfingers 7.12502
rthumb 9.64411 6.95164
lclavicle 1.27098e-014 1.54058e-015
lhumerus -23.9829 20.808 45.7101
lradius 148.588
lwrist 53.0614
lhand 2.49363 22.6266
lfingers 7.12502
lthumb 27.9766 50.5617
rfemur 4.90396 9.17267 21.2104
rtibia 17.4778
rfoot -22.1761 -18.7182
rtoes 11.3602
lfemur -36.2223 -7.21503 -8.59305
ltibia 27.1914
lfoot 0.154546 3.22498
ltoes -20.9539
62
root 12.1707 18.0039 9.02463 -171.929 8.03952 181.049
lowerback 3.79837 1.76217 -0.355992
upperback 0.77978 2.36342 0.344191
thorax -1.35642 1.19232 0.435603
lowerneck -9.00607 1.18791 0.105124
upperneck 5.58979 1.87941 -3.36444
head 3.44954 0.807787 -1.01755
rclavicle -3.11843e-015 6.4605e-016
rhumerus -17.3854 -5.40415 -66.9605
rradius 145.113
rwrist -36.2073
rhand -14.7397 36.1544
rfingers 7.12502
rthumb 11.4158 6.48513
lclavicle -3.11843e-015 6.4605e-016
lhumerus -21.0139 22.579 45.5958
lradius 148.095
lwrist 53.6701
lhand 2.4621 21.9067
lfingers 7.12502
lthumb 27.9464 49.8468
rfemur 5.25873 9.01743 21.4758
rtibia 17.3498
rfoot -22.2327 -18.8767
rtoes 10.0063
lfemur -36.5681 -7.32575 -8.46787
ltibia 28.1181
lfoot 0.462532 2.23092
ltoes -19.8744
63
root 12.1404 17.9925 8.92831 -171.954 7.98583 180.861
lowerback 3.71607 1.96876 -0.681942
upperback 0.736936 2.62172 0.207751
thorax -1.36531 1.32143 0.467193
lowerneck -8.68293 0.932152 0.0324576
upperneck 5.35388 1.48707 -2.86409
head 3.28881 0.63345 -0.861326
rclavicle 9.69696e-015 1.16786e-015
rhumerus -15.3472 -7.74051 -66.4438
rradius 145.427
rwrist -36.1565
rhand -16.0555 36.7656
rfingers 7.12502
rthumb 10.1467 7.03025
lclavicle 9.69696e-015 1.16786e-015
lhumerus -17.8802 23.8538 46.0334
lradius 147.258
lwrist 53.8893
lhand 1.75177 21.4163
lfingers 7.12502
lthumb 27.2672 49.4651
rfemur 5.60175 8.82141 21.147
rtibia 17.2795
rfoot -22.2509 -18.8919
rtoes 8.82542
lfemur -36.7576 -7.41788 -8.89859
ltibia 28.9994
lfoot 0.487475 1.87297
ltoes -17.5938
64
root 12.1091 17.9857 8.83868 -171.925 7.69814 180.307
lowerback 3.63408 1.99312 -1.31875
upperback 0.708501 2.62629 0.011155
thorax -1.36791 1.32558 0.623656
lowerneck -8.96892 0.856631 -0.20645
upperneck 5.70298 1.37793 -2.33589
head 3.45487 0.587339 -0.652072
rclavicle -1.79217e-014 1.37907e-015
rhumerus -13.1455 -9.30329 -66.2637
rradius 145.342
rwrist -36.0349
rhand -17.6367 38.6128
rfingers 7.12502
rthumb 8.62095 8.80879
lclavicle -1.79217e-014 1.37907e-015
lhumerus -14.8492 25.2078 46.6389
lradius 146.133
lwrist 53.7727
lhand 0.840008 21.2566
lfingers 7.12502
lthumb 26.3947 49.4392
rfemur 5.78785 8.74614 20.48
rtibia 17.2931
rfoot -22.6076 -18.8678
rtoes 10.0566
lfemur -37.1838 -7.88183 -9.62882
ltibia 29.8512
lfoot 0.651966 2.14994
ltoes -13.8097
65
root 12.0862 17.9745 8.74875 -171.891 7.70846 180.116
lowerback 3.68255 2.11589 -1.67621
upperback 0.619224 2.77145 -0.102209
thorax -1.50095 1.40015 0.695596
lowerneck -8.96474 0.723273 -0.303012
upperneck 5.68366 1.19079 -2.11602
head 3.44181 0.500769 -0.573321
rclavicle -3.45419e-014 -1.38528e-015
rhumerus -11.1956 -10.4308 -66.1929
rradius 144.8
rwrist -35.4818
rhand -16.8157 32.9673
rfingers 7.12502
rthumb 9.41318 3.19755
lclavicle -3.45419e-014 -1.38528e-015
lhumerus -11.9243 26.2988 47.4167
lradius 144.75
lwrist 53.8332
lhand 0.536494 21.6246
lfingers 7.12502
lthumb 26.1041 49.8505
rfemur 5.91841 8.94652 20.2491
rtibia 17.6186
rfoot -23.1531 -18.681
rtoes 12.1924
lfemur -37.4353 -7.4507 -10.1581
ltibia 30.654
lfoot 0.713375 1.77438
ltoes -11.4917
66
root 12.0587 17.9614 8.66392 -171.94 7.58643 180.097
lowerback 3.85074 2.28309 -1.73778
upperback 0.470196 2.98293 -0.209762
thorax -1.75078 1.50731 0.597505
lowerneck -8.4648 0.429709 -0.449038
upperneck 5.37698 0.770932 -1.73745
head 3.23005 0.308456 -0.446537
rclavicle 3.39176e-015 2.48481e-016
rhumerus -9.53536 -11.502 -66.02
rradius 143.701
rwrist -35.0063
rhand -18.7509 40.5449
rfingers 7.12502
rthumb 7.54557 10.6995
lclavicle 3.39176e-015 2.48481e-016
lhumerus -8.98037 26.5831 48.5668
lradius 142.874
lwrist 53.9775
lhand 0.662389 21.6194
lfingers 7.12502
lthumb 26.2247 49.8274
rfemur 5.97971 8.7891 20.1847
rtibia 18.2458
rfoot -23.1405 -18.78
rtoes 11.9393
lfemur -37.5808 -6.98363 -10.632
ltibia 31.428
lfoot 0.555071 1.08026
ltoes -12.5369
67
root 12.032 17.9572 8.58171 -172.059 7.4762 179.996
lowerback 4.09905 2.39042 -1.87943
upperback 0.364859 3.11077 -0.326415
thorax -2.00208 1.57387 0.535497
lowerneck -8.29653 0.220854 -0.692453
upperneck 5.44751 0.480289 -1.27214
head 3.2166 0.176228 -0.267611
rclavicle 5.01931e-015 3.57812e-015
rhumerus -7.72935 -11.6239 -66.0184
rradius 141.872
rwrist -34.8778
rhand -19.1777 39.6198
rfingers 7.12502
rthumb 7.13359 9.75998
lclavicle 5.01931e-015 3.57812e-015
lhumerus -6.29906 26.5195 49.6828
lradius 140.412
lwrist 54.2074
lhand 0.685093 21.1588
lfingers 7.12502
lthumb 26.2464 49.3636
rfemur 5.94496 8.43224 19.9812
rtibia 19.0665
rfoot -22.6457 -18.9834
rtoes 10.4501
lfemur -37.6676 -6.44662 -11.2633
ltibia 32.2165
lfoot 0.302255 0.505392
ltoes -16.0416
68
root 12.0046 17.9492 8.50702 -172.101 7.24563 179.875
lowerback 4.38258 2.38151 -1.99247
upperback 0.224074 3.08167 -0.482958
thorax -2.3022 1.56248 0.423003
lowerneck -8.20872 0.0886546 -0.774188
upperneck 5.5987 0.282617 -0.899173
head 3.25002 0.0894277 -0.142316
rclavicle 1.68718e-014 -1.00386e-014
rhumerus -6.03954 -10.8258 -66.1749
rradius 139.548
rwrist -35.3746
rhand -19.4733 39.214
rfingers 7.12502
rthumb 6.84827 9.34474
lclavicle 1.68718e-014 -1.00386e-014
lhumerus -4.03066 26.1588 50.4704
lradius 137.556
lwrist 54.9319
lhand 0.541992 20.9308
lfingers 7.12502
lthumb 26.1094 49.1559
rfemur 5.63678 7.92573 19.7512
rtibia 20.2065
rfoot -22.4457 -19.0409
rtoes 9.4117
lfemur -37.8919 -5.97408 -11.868
ltibia 32.9694
lfoot 0.0680031 -0.0229994
ltoes -18.4652
69
root 11.9754 17.9317 8.43924 -172.078 7.03464 179.637
lowerback 4.59639 2.40865 -2.18045
upperback -0.00809977 3.09364 -0.718358
thorax -2.65831 1.57311 0.268978
lowerneck -7.66844 -0.0844519 -0.882142
upperneck 5.56641 0.00421693 -0.397904
head 3.13431 -0.0361163 0.0251095
rclavicle -1.05853e-014 5.36719e-015
rhumerus -4.77802 -9.86454 -66.114
rradius 136.341
rwrist -36.2324
rhand -18.1447 39.6885
rfingers 7.12502
rthumb 8.13069 9.86495
lclavicle -1.05853e-014 5.36719e-015
lhumerus -1.99621 25.3463 51.1018
lradius 134.245
lwrist 55.72
lhand 0.479147 21.1139
lfingers 7.12502
lthumb 26.0492 49.3479
rfemur 5.07579 7.33049 19.359
rtibia 21.6235
rfoot -22.564 -19.0407
rtoes 8.29875
lfemur -38.1783 -5.53345 -12.5613
ltibia 33.662
lfoot -0.023861 -0.715171
ltoes -18.2477
70
root 11.95 17.9171 8.37129 -172.226 7.08276 179.414
lowerback 4.74682 2.52913 -2.46376
upperback -0.0441535 3.23356 -0.878646
thorax -2.78945 1.64837 0.243626
lowerneck -7.08492 -0.250484 -1.27866
upperneck 5.32844 -0.227847 0.224357
head 2.94426 -0.134088 0.284611
rclavicle 2.5842e-014 -5.96354e-016
rhumerus -3.3882 -8.98338 -65.8055
rradius 132.769
rwrist -36.5677
rhand -16.3781 37.5702
rfingers 7.12502
rthumb 9.83542 7.81991
lclavicle 2.5842e-014 -5.96354e-016
lhumerus 0.158633 24.5047 51.8031
lradius 130.341
lwrist 55.4822
lhand 0.551324 21.3543
lfingers 7.12502
lthumb 26.1183 49.5781
rfemur 4.55765 6.87639 18.9548
rtibia 23.2498
rfoot -22.378 -19.1467
rtoes 7.04444
lfemur -38.153 -4.89151 -13.2651
ltibia 34.2804
lfoot -0.239956 -1.33866
ltoes -18.2815
71
root 11.9245 17.9108 8.30302 -172.458 7.12101 179.384
lowerback 4.82552 2.57882 -2.50022
upperback 0.0516485 3.2993 -0.945919
thorax -2.73441 1.6818 0.18905
lowerneck -6.59854 -0.341961 -1.67264
upperneck 5.11449 -0.349065 0.658489
head 2.784 -0.186301 0.487123
rclavicle -3.73964e-014 -1.07344e-014
rhumerus -1.76026 -7.77958 -65.4791
rradius 128.694
rwrist -35.8216
rhand -14.8231 35.0917
rfingers 7.12502
rthumb 11.3354 5.41803
lclavicle -3.73964e-014 -1.07344e-014
lhumerus 2.09461 23.5469 52.2623
lradius 126.365
lwrist 54.0365
lhand -0.0755714 21.4059
lfingers 7.12502
lthumb 25.518 49.717
rfemur 4.00989 6.36993 18.7552
rtibia 25.0896
rfoot -21.7183 -19.2888
rtoes 4.9596
lfemur -37.9453 -4.2769 -13.7317
ltibia 34.7954
lfoot -0.524277 -1.8105
ltoes -18.8938
72
root 11.8954 17.9106 8.23891 -172.635 7.00146 179.188
lowerback 4.81384 2.48668 -2.58003
upperback 0.0863616 3.17453 -1.0353
thorax -2.68834 1.62114 0.152665
lowerneck -5.97293 -0.340172 -2.01284
upperneck 5.01431 -0.345033 0.880886
head 2.63547 -0.185186 0.616758
rclavicle 1.67228e-014 -6.55989e-015
rhumerus -0.212134 -6.19252 -65.0195
rradius 124.58
rwrist -34.6673
rhand -13.6536 33.5505
rfingers 7.12502
rthumb 12.4631 3.9421
lclavicle 1.67228e-014 -6.55989e-015
lhumerus 3.36984 22.2879 52.3859
lradius 122.79
lwrist 51.4972
lhand -1.16465 20.954
lfingers 7.12502
lthumb 24.4744 49.4103
rfemur 3.24952 5.62166 18.3266
rtibia 27.1607
rfoot -21.2353 -19.1199
rtoes 3.37762
lfemur -37.839 -3.95799 -14.2951
ltibia 35.2439
lfoot -0.667391 -2.25875
ltoes -18.4963
